<svg xmlns="http://www.w3.org/2000/svg" viewBox="0 0 91.64 80.64"><defs><style>.cls-1{fill:#2972b1;}.cls-2{fill:#f5d121;}</style></defs><g id="圖層_2" data-name="圖層 2"><path class="cls-1" d="M88,80.64H63.76A18,18,0,0,1,45.63,63.21a17.82,17.82,0,0,1,32.81-10h0l.8,1.39,0,0,4.89,8.47,7,12.11A3.6,3.6,0,0,1,88,80.64Z"/><path class="cls-1" d="M67.23,33.79a3.6,3.6,0,0,1-3.15,5.4h-.64A79,79,0,0,0,7.71,62.09L42.51,1.8a3.61,3.61,0,0,1,6.25,0Z"/><path class="cls-2" d="M62.15,42.12A42,42,0,0,0,22.06,77.54a3.61,3.61,0,0,1-3.57,3.1H3.62A3.61,3.61,0,0,1,.64,75,76.34,76.34,0,0,1,62.15,42.12Z"/></g></svg>